<?xml version="1.0" encoding="UTF-8" standalone="no"?>
<!-- Created with Inkscape (http://www.inkscape.org/) -->

<svg
   xmlns:dc="http://purl.org/dc/elements/1.1/"
   xmlns:cc="http://creativecommons.org/ns#"
   xmlns:rdf="http://www.w3.org/1999/02/22-rdf-syntax-ns#"
   xmlns:svg="http://www.w3.org/2000/svg"
   xmlns="http://www.w3.org/2000/svg"
   xmlns:sodipodi="http://sodipodi.sourceforge.net/DTD/sodipodi-0.dtd"
   xmlns:inkscape="http://www.inkscape.org/namespaces/inkscape"
   width="210mm"
   height="297mm"
   viewBox="0 0 210 297"
   version="1.1"
   id="svg8"
   inkscape:version="0.92.2 (5c3e80d, 2017-08-06)"
   sodipodi:docname="map.svg">
  <defs
     id="defs2" />
  <sodipodi:namedview
     id="base"
     pagecolor="#ffffff"
     bordercolor="#666666"
     borderopacity="1.0"
     inkscape:pageopacity="0.0"
     inkscape:pageshadow="2"
     inkscape:zoom="1.4"
     inkscape:cx="431.42454"
     inkscape:cy="715.53684"
     inkscape:document-units="mm"
     inkscape:current-layer="layer1"
     showgrid="false"
     inkscape:window-width="2160"
     inkscape:window-height="1346"
     inkscape:window-x="-11"
     inkscape:window-y="-11"
     inkscape:window-maximized="1" />
  <metadata
     id="metadata5">
    <rdf:RDF>
      <cc:Work
         rdf:about="">
        <dc:format>image/svg+xml</dc:format>
        <dc:type
           rdf:resource="http://purl.org/dc/dcmitype/StillImage" />
        <dc:title />
      </cc:Work>
    </rdf:RDF>
  </metadata>
  <g
     inkscape:label="Ebene 1"
     inkscape:groupmode="layer"
     id="layer1">
    <path
       style="fill:none;stroke:#000000;stroke-width:0.26458332px;stroke-linecap:butt;stroke-linejoin:miter;stroke-opacity:1"
       d="m 14.93006,251.07589 25.192998,-25.52844 -3.524825,-28.52346 6.680041,-20.03143 20.410714,-22.11161 43.467262,-16.63095 13.04018,-17.5759 1.70089,-15.875 -0.37798,-8.504457 -1.53784,-85.975401 7.18826,0.414761"
       id="path14"
       inkscape:connector-curvature="0"
       sodipodi:nodetypes="ccccccccccc" />
    <g
       id="g44">
      <path
         sodipodi:nodetypes="ccccccccccc"
         inkscape:connector-curvature="0"
         id="path14-1"
         d="m 14.93006,251.07589 4.342214,9.25606 29.714003,-30.76478 -3.524825,-28.52346 6.680041,-20.03143 20.410715,-22.11161 43.467262,-16.63095 13.04018,-17.5759 1.70089,-15.875 -0.37798,-8.50446 -3.2128,-89.580357"
         style="fill:none;stroke:#000000;stroke-width:0.26458332px;stroke-linecap:butt;stroke-linejoin:miter;stroke-opacity:1" />
    </g>
    <g
       id="g115" class="building">
        <ellipse
           id="path33"
           cx="126.622"
           cy="200.52158"
           rx="76.540176"
           ry="42.427826"
           style="fill:#ff5555;stroke-width:0.26921082" />
        <rect
           id="rect31"
           width="100.73066"
           height="41.388393"
           x="75.878716"
           y="179.27931"
           style="fill:#008000;stroke-width:0.26458332" />
        <rect
           style="fill:#c87137;stroke-width:0.26458332"
           id="rect58"
           width="10.961308"
           height="22.111607"
           x="63.688984"
           y="189.27678" />
    </g>
    <path
       style="fill:#c87137;stroke:#000000;stroke-width:0.26458332px;stroke-linecap:butt;stroke-linejoin:miter;stroke-opacity:1"
       d="m 96.152682,151.6318 -2.082468,-1.17586 -2.599976,-6.12393 0.332118,-2.36317 -2.643865,0.93151 -0.06485,2.19711 2.378563,6.40463 2.317311,1.17192 z"
       id="path56"
       inkscape:connector-curvature="0"
       sodipodi:nodetypes="ccccccccc" />
    <g
       id="g114" class="building">
      <rect
         transform="rotate(-26.286571)"
         style="stroke-width:0.26458332;fill:#b3b3b3"
         y="125.28919"
         x="-39.483364"
         height="27.025299"
         width="54.617558"
         id="rect10" />
      <text
         transform="rotate(-26.606108)"
         id="text66"
         y="140.94807"
         x="-32.826717"
         style="font-style:normal;font-weight:normal;font-size:10.58333302px;line-height:1.25;font-family:sans-serif;letter-spacing:0px;word-spacing:0px;fill:#000000;fill-opacity:1;stroke:none;stroke-width:0.26458332"
         xml:space="preserve"><tspan
           style="font-size:7.05555534px;stroke-width:0.26458332"
           y="140.94807"
           x="-32.826717"
           id="tspan64"
           sodipodi:role="line">Kletterhalle</tspan></text>
    </g>
    <g
       id="g119" class="building">
      <rect
         y="92.136894"
         x="156.86011"
         height="65.389885"
         width="46.491074"
         id="rect52"
         style="fill:#b3b3b3;stroke-width:0.1841052" />
      <text
         transform="rotate(89.699128)"
         id="text74"
         y="-177.39159"
         x="97.070656"
         style="font-style:normal;font-weight:normal;font-size:10.58333302px;line-height:1.25;font-family:sans-serif;letter-spacing:0px;word-spacing:0px;fill:#000000;fill-opacity:1;stroke:none;stroke-width:0.26458332"
         xml:space="preserve"><tspan
           style="font-size:7.05555534px;stroke-width:0.26458332"
           y="-177.39159"
           x="97.070656"
           id="tspan72"
           sodipodi:role="line">Mehrzweckhalle</tspan></text>
    </g>
    <g
       id="g124" class="building">
      <rect
         y="63.221725"
         x="135.31548"
         height="19.087799"
         width="67.657738"
         id="rect60"
         style="fill:#b3b3b3;stroke-width:0.37735283" />
      <text
         id="text78"
         y="75.127968"
         x="137.9613"
         style="font-style:normal;font-weight:normal;font-size:10.58333302px;line-height:1.25;font-family:sans-serif;letter-spacing:0px;word-spacing:0px;fill:#000000;fill-opacity:1;stroke:none;stroke-width:0.26458332"
         xml:space="preserve"><tspan
           style="font-size:7.05555534px;stroke-width:0.26458332"
           y="75.127968"
           x="137.9613"
           id="tspan76"
           sodipodi:role="line">Therapiezimmer</tspan></text>
    </g>
    <g
       id="g129" class="building">
      <rect
         y="42.622021"
         x="175.94792"
         height="20.599703"
         width="27.025299"
         id="rect62"
         style="fill:#b3b3b3;stroke-width:0.19061895" />
      <text
         id="text82"
         y="54.055801"
         x="177.17633"
         style="font-style:normal;font-weight:normal;font-size:10.58333302px;line-height:1.25;font-family:sans-serif;letter-spacing:0px;word-spacing:0px;fill:#000000;fill-opacity:1;stroke:none;stroke-width:0.26458332"
         xml:space="preserve"><tspan
           style="font-size:7.05555534px;stroke-width:0.26458332"
           y="54.055801"
           x="177.17633"
           id="tspan80"
           sodipodi:role="line">Fitness</tspan></text>
    </g>
    <path
       style="fill:#c87137;stroke:#000000;stroke-width:0.26458332px;stroke-linecap:butt;stroke-linejoin:miter;stroke-opacity:1"
       d="m 120.69177,99.375487 1.87463,-1.48495 6.65228,-0.0974 2.06324,1.19913 0.13479,-2.799914 -2.01026,-0.889018 -6.82871,-0.213514 -1.95958,1.703929 z"
       id="path56-3"
       inkscape:connector-curvature="0"
       sodipodi:nodetypes="ccccccccc"
       inkscape:transform-center-x="7.3717763"
       inkscape:transform-center-y="0.12213201" />
    <g
       id="g196" class="building">
        <rect
            style="fill:#0000ff;stroke-width:0.26458332"
            id="rect107"
            width="37.608631"
            height="16.819941"
            x="20.599701"
            y="41.866074" />
         <rect
            style="fill:#0000ff;stroke-width:0.26458332"
            id="rect109"
            width="20.032738"
            height="27.403273"
            x="63.688984"
            y="36.952377" />
        <ellipse
           style="fill:#d38d5f;stroke-width:0.31873447"
           id="path131"
           cx="98.746277"
           cy="81.459084"
           rx="11.244792"
           ry="12.567708" />
        <rect
           y="64.166664"
           x="19.654762"
           height="33.450893"
           width="78.052086"
           id="rect99"
           style="fill:#b3b3b3;stroke-width:0.26458332" />
        <text
           id="text103"
           y="77.055656"
           x="59.947956"
           style="font-style:normal;font-weight:normal;font-size:10.58333302px;line-height:1;font-family:sans-serif;text-align:center;letter-spacing:0px;word-spacing:0px;text-anchor:middle;fill:#000000;fill-opacity:1;stroke:none;stroke-width:0.26458332"
           xml:space="preserve"><tspan
             style="font-size:7.05555534px;line-height:1;text-align:center;text-anchor:middle;stroke-width:0.26458332"
             y="77.055656"
             x="61.18819"
             id="tspan101"
             sodipodi:role="line">Schwimmbad, SPA </tspan><tspan
             id="tspan105"
             style="font-size:7.05555534px;line-height:1;text-align:center;text-anchor:middle;stroke-width:0.26458332"
             y="87.638992"
             x="59.947956"
             sodipodi:role="line">&amp; Empfang</tspan></text>
    </g>
    <path
       style="fill:#0000ff;stroke-width:0.71428573"
       d="m 459.84512,345.12763 c -0.7055,-24.69128 -5.52789,-301.966772 -5.28177,-303.688725 0.21803,-1.525335 0.23592,-1.526479 12.71833,-0.813199 l 12.5,0.714286 0.19366,3.928572 c 0.1065,2.160714 2.58552,71.589286 5.50891,154.285716 2.9234,82.69643 5.43533,152.61837 5.58207,155.38209 l 0.26681,5.02495 -4.7043,-0.52398 c -2.58736,-0.2882 -9.01827,-0.5405 -14.2909,-0.56067 -7.70088,-0.0294 -9.82768,0.18148 -10.81212,1.07239 -1.15316,1.04359 -1.25237,0.16867 -1.68069,-14.82143 z"
       id="path46"
       inkscape:connector-curvature="0"
       transform="scale(0.26458333)" />
    <path
       style="fill:#0000ff;stroke-width:0.71428573"
       d="m 351.74597,557.55918 c -2.45536,-5.81942 -4.46429,-10.9123 -4.46429,-11.31752 0,-0.40522 13.09822,-5.73724 29.10715,-11.84892 l 29.10714,-11.11214 24.82143,-33.44084 c 13.65178,-18.39246 24.82241,-33.61481 24.82363,-33.82745 10e-4,-0.21263 1.44116,-13.68445 3.1999,-29.93738 2.93402,-27.11402 3.16245,-30.53022 2.77007,-41.42857 -0.40332,-11.2021 -0.34963,-11.92388 0.94369,-12.68795 0.78376,-0.46303 6.71163,-1.01257 13.83488,-1.28256 11.51271,-0.43636 12.59121,-0.3705 14.13706,0.8633 1.63992,1.30887 1.69012,1.72191 2.5,20.56827 l 0.82648,19.23257 -3.21428,29.82616 -3.21429,29.82616 -24.48649,33.03098 -24.48648,33.03099 -40.15637,15.31096 c -22.08601,8.42103 -40.4778,15.4153 -40.87066,15.54283 -0.39286,0.12752 -2.72321,-4.52948 -5.17857,-10.34889 z"
       id="path48"
       inkscape:connector-curvature="0"
       transform="scale(0.26458333)" />
    <path
       style="fill:#0000ff;stroke-width:0.71428573"
       d="m 71.295064,978.69104 c -0.94,-2.07879 -4.339667,-9.39274 -7.554816,-16.25322 -3.215149,-6.86048 -5.903257,-12.69514 -5.973574,-12.96592 -0.07032,-0.27079 19.814799,-20.69338 44.189146,-45.38355 24.37434,-24.69016 45.70986,-46.41792 47.41224,-48.2839 l 3.09524,-3.39269 -6.62928,-53.77752 -6.62929,-53.77753 12.63176,-37.82979 12.63176,-37.82978 38.2363,-41.42858 38.2363,-41.42857 46.56328,-17.88485 c 25.6098,-9.83666 47.07768,-18.08491 47.70642,-18.32943 0.92747,-0.36071 1.9045,1.61801 5.17857,10.48779 2.21948,6.01281 4.03542,11.22691 4.03542,11.5869 0,0.35999 -15.91641,6.72984 -35.36979,14.15523 l -35.3698,13.5007 -38.7346,41.98609 -38.73462,41.98609 -12.6299,37.88223 -12.6299,37.88222 6.34641,51.5878 c 3.49052,28.37329 6.49541,52.59953 6.67752,53.83608 0.31504,2.13912 -1.87343,4.53187 -45.07833,49.28572 -24.9752,25.87058 -50.019237,51.79183 -55.653416,57.60277 l -10.243961,10.56533 z"
       id="path50"
       inkscape:connector-curvature="0"
       transform="scale(0.26458333)" />
  </g>
</svg>
